<?xml version="1.0" standalone="no"?>
<!DOCTYPE svg PUBLIC "-//W3C//DTD SVG 20010904//EN"
 "http://www.w3.org/TR/2001/REC-SVG-20010904/DTD/svg10.dtd">
<svg version="1.0" xmlns="http://www.w3.org/2000/svg"
 width="1024.000000pt" height="1024.000000pt" viewBox="0 0 1024.000000 1024.000000"
 preserveAspectRatio="xMidYMid meet">
<metadata>
Created by potrace 1.14, written by Peter Selinger 2001-2017
</metadata>
<g transform="translate(0.000000,1024.000000) scale(0.100000,-0.100000)"
fill="#000000" stroke="none">
<path d="M6029 7966 c-2 -2 -31 -6 -64 -9 -168 -16 -358 -82 -513 -179 -37
-23 -69 -45 -72 -48 -3 -3 -31 -25 -62 -49 -32 -24 -58 -47 -58 -51 0 -10 -69
-38 -106 -43 -48 -7 -99 16 -167 75 -123 108 -236 174 -379 222 -70 24 -85 28
-153 41 -16 3 -37 8 -45 10 -33 9 -140 18 -240 19 -157 3 -272 -20 -440 -86
-355 -140 -779 -442 -1273 -908 -191 -179 -541 -540 -712 -732 -16 -18 -64
-71 -106 -118 -87 -98 -319 -367 -366 -426 -18 -22 -45 -56 -61 -75 -16 -19
-54 -63 -83 -99 -69 -82 -340 -425 -399 -505 -25 -33 -48 -62 -51 -65 -11 -9
-329 -439 -329 -444 0 -3 5 -6 11 -6 17 0 305 -176 469 -288 162 -110 366
-259 437 -319 22 -19 27 -23 108 -88 58 -46 75 -61 210 -181 55 -49 134 -121
175 -160 87 -84 79 -76 381 -352 25 -23 109 -95 185 -158 479 -400 945 -656
1483 -814 41 -12 81 -23 90 -25 9 -2 41 -10 71 -18 57 -15 183 -43 235 -52 17
-2 41 -7 55 -10 34 -7 66 -12 125 -20 28 -4 61 -9 75 -11 14 -2 54 -6 90 -9
36 -4 75 -8 88 -10 155 -25 722 -25 932 0 113 14 196 26 280 40 62 11 220 45
275 60 33 9 71 18 85 21 14 3 97 29 185 59 428 142 826 354 1250 664 50 36 92
68 95 71 3 3 21 17 40 30 19 13 37 27 40 30 3 3 33 27 67 53 34 26 68 53 75
60 7 7 33 28 58 47 25 19 47 37 50 40 4 4 338 284 445 372 11 9 58 46 105 83
47 37 94 74 105 83 11 10 67 52 125 95 58 43 121 90 140 105 191 147 602 415
852 556 l48 27 -77 107 c-219 307 -509 691 -752 992 -111 138 -426 517 -441
530 -3 3 -32 36 -65 75 -33 38 -67 76 -75 85 -8 9 -53 58 -100 110 -178 198
-535 562 -682 695 -122 111 -212 190 -276 242 -37 31 -69 58 -72 62 -22 27
-321 239 -495 351 -98 63 -402 196 -490 215 -5 1 -28 5 -50 10 -22 4 -49 10
-60 12 -26 5 -222 13 -226 9z"/>
</g>
</svg>
